<?xml version="1.0" encoding="UTF-8"?>
<svg width="46px" height="46px" viewBox="0 0 46 46" version="1.1" xmlns="http://www.w3.org/2000/svg" xmlns:xlink="http://www.w3.org/1999/xlink">
    <!-- Generator: Sketch 51.2 (57519) - http://www.bohemiancoding.com/sketch -->
    <title>fb</title>
    <desc>Created with Sketch.</desc>
    <defs></defs>
    <g id="Symbols" stroke="none" stroke-width="1" fill="none" fill-rule="evenodd">
        <g id="footer" transform="translate(-336.000000, -59.000000)">
            <g id="fb" transform="translate(336.000000, 59.000000)">
                <path d="M0,22.7727273 C0,10.19535 10.1961091,0 22.7727273,0 C35.3493455,0 45.5454545,10.19535 45.5454545,22.7727273 C45.5454545,35.3493455 35.3493455,45.5454545 22.7727273,45.5454545 C10.1961091,45.5454545 0,35.3493455 0,22.7727273 Z" id="Shape" fill="#DB2323"></path>
                <path d="M18.9693697,35.4242424 L24.0186619,35.4242424 L24.0186619,22.7711768 L27.3871029,22.7711768 L27.8333333,18.4113655 L24.0186619,18.4113655 L24.0239029,16.228359 C24.0239029,15.0918932 24.1287221,14.4817987 25.7040055,14.4817987 L27.8093747,14.4817987 L27.8093747,10.1212121 L24.440185,10.1212121 C20.3934139,10.1212121 18.9693697,12.2367749 18.9693697,15.7934631 L18.9693697,18.4113655 L16.4469697,18.4113655 L16.4469697,22.7719521 L18.9693697,22.7719521 L18.9693697,35.4242424 L18.9693697,35.4242424 Z" id="Path" fill="#FFFFFF"></path>
            </g>
        </g>
    </g>
</svg>