<?xml version="1.0" encoding="UTF-8"?>
<svg width="49px" height="48px" viewBox="0 0 49 48" version="1.1" xmlns="http://www.w3.org/2000/svg" xmlns:xlink="http://www.w3.org/1999/xlink">
    <!-- Generator: Sketch 51.2 (57519) - http://www.bohemiancoding.com/sketch -->
    <title>Group</title>
    <desc>Created with Sketch.</desc>
    <defs></defs>
    <g id="Symbols" stroke="none" stroke-width="1" fill="none" fill-rule="evenodd">
        <g id="footer" transform="translate(-1055.000000, -58.000000)">
            <g id="Group" transform="translate(1055.000000, 58.000000)">
                <rect id="Rectangle-path" fill="#AEB9AD" x="0" y="0" width="49" height="48"></rect>
                <path d="M9.36764706,14.9602097 L10.2799118,14.9602097 C10.5463777,14.9602097 10.7254628,14.9045168 10.8171672,14.7926224 C10.908644,14.6807279 10.9546099,14.5225499 10.9546099,14.3178339 L10.9546099,7.88059701 L13.6911765,7.88059701 L13.6911765,14.8340742 C13.6911765,15.6999846 13.5139118,16.3098094 13.1598375,16.6635484 C12.8057632,17.0175418 12.2414288,17.1940299 11.4670619,17.1940299 L9.36787461,17.1940299 L9.36787461,14.9602097 L9.36764706,14.9602097 Z" id="Shape" fill="#4A4A4A"></path>
                <polygon id="Shape" fill="#4A4A4A" points="16.5735294 7.88059701 19.4558824 7.88059701 19.4558824 17.1940299 16.5735294 17.1940299"></polygon>
                <polygon id="Shape" fill="#4A4A4A" points="21.6176471 7.88059701 24.0598652 7.88059701 26.6273839 11.4690049 26.6273839 7.88059701 29.5441176 7.88059701 29.5441176 17.1940299 27.0879208 17.1940299 24.5341267 13.6196084 24.5341267 17.1940299 21.6176471 17.1940299"></polygon>
                <path d="M11.4845831,19.3432836 L13.7354928,19.3432836 L17.2941176,28.6567164 L14.3400389,28.6567164 L14.0308494,27.8190567 L11.1894827,27.8190567 L10.8797808,28.6567164 L7.92647059,28.6567164 L11.4845831,19.3432836 L11.4845831,19.3432836 Z M13.2794118,25.9957356 L12.6108357,24.6652452 L11.9411765,25.9957356 L13.2794118,25.9957356 L13.2794118,25.9957356 Z" id="Shape" fill="#4A4A4A"></path>
                <polygon id="Shape" fill="#4A4A4A" points="18.7352941 19.3432836 21.1775122 19.3432836 23.7450309 22.9319458 23.7450309 19.3432836 26.6617647 19.3432836 26.6617647 28.6567164 24.2053137 28.6567164 21.6515196 25.0820406 21.6515196 28.6567164 18.7352941 28.6567164"></polygon>
                <path d="M27.3823529,28.6567164 L27.3823529,19.3432836 L29.9104306,19.3432836 C30.7668956,19.3432836 31.5302721,19.4409343 32.1995643,19.6364899 C32.8691054,19.8320455 33.4338595,20.1255062 33.8943246,20.5163631 C34.3545408,20.9072201 34.704992,21.3936934 34.946674,21.9750201 C35.1883559,22.5573639 35.3088235,23.2299838 35.3088235,23.9928796 C35.3088235,24.7562841 35.1883559,25.4286497 34.946674,26.0104849 C34.704992,26.5923202 34.3545408,27.0787935 33.8943246,27.4699047 C33.4338595,27.8605074 32.8693543,28.1562567 32.1995643,28.3563897 C31.5302721,28.5567771 30.7668956,28.6567164 29.9104306,28.6567164 L27.3823529,28.6567164 L27.3823529,28.6567164 Z M30.0245098,25.9957356 C30.8658927,25.9957356 31.5163169,25.8311023 31.976702,25.502089 C32.4367806,25.1728224 32.6666667,24.6698043 32.6666667,23.9930347 C32.6666667,23.3165185 32.4367806,22.8160332 31.976702,22.4913257 C31.5163169,22.1668714 30.8658927,22.0042644 30.0245098,22.0042644 L30.0245098,25.9957356 L30.0245098,25.9957356 Z" id="Shape" fill="#4A4A4A"></path>
                <path d="M7.92647059,36.1793468 C7.92647059,35.4695465 8.04885021,34.8290541 8.29408749,34.256658 C8.53860771,33.6842619 8.8713273,33.1940174 9.29129017,32.7859247 C9.71125305,32.3780742 10.2012496,32.0654616 10.7610407,31.8480868 C11.3208319,31.6309543 11.9162374,31.5223881 12.5458232,31.5223881 C13.0449026,31.5223881 13.4882897,31.5708551 13.8778967,31.6685163 C14.2670256,31.7664198 14.6016574,31.8769247 14.882031,32.0012427 C15.2056677,32.1427666 15.4858023,32.2985882 15.7221958,32.466769 L14.3439909,34.9284116 C14.2039236,34.8222688 14.050232,34.7204879 13.8848283,34.6225844 C13.7359172,34.5515802 13.5580843,34.4827569 13.3530028,34.4161147 C13.1472043,34.3494725 12.9134401,34.3162725 12.6509932,34.3162725 C12.3794634,34.3162725 12.1301627,34.3652243 11.9028521,34.4626431 C11.6753025,34.5598196 11.4764356,34.693104 11.3055344,34.8617694 C11.1353503,35.0301925 11.0017366,35.2274535 10.9051714,35.4537947 C10.8088453,35.6798936 10.7608017,35.9217443 10.7608017,36.1788621 C10.7608017,36.4362223 10.8107574,36.6778307 10.911864,36.9036872 C11.0120145,37.1302708 11.1499306,37.3277741 11.3251343,37.4959549 C11.5000989,37.6643779 11.7056584,37.7976624 11.9418128,37.8950812 C12.1779673,37.9927424 12.4363508,38.0414518 12.7164854,38.0414518 C12.9959029,38.0414518 13.2459206,38.0063131 13.4646264,37.9348242 C13.6828541,37.8640623 13.8666626,37.784334 14.0155737,37.6953969 C14.1905383,37.5984627 14.3437519,37.4828688 14.4747363,37.3495843 L15.8529412,39.8114693 C15.6167868,40.0063069 15.3368912,40.1798191 15.0132545,40.3305517 C14.7331199,40.4546274 14.3960979,40.569979 14.0024275,40.6763642 C13.6089961,40.7825071 13.1579603,40.8358209 12.6509932,40.8358209 C11.9685834,40.8358209 11.3385195,40.7226503 10.7608017,40.4970361 C10.1835619,40.2706948 9.6844825,39.9534778 9.26451963,39.5451427 C8.8450348,39.1372923 8.51685664,38.6472902 8.2804632,38.0753787 C8.04430878,37.5034673 7.92647059,36.8712143 7.92647059,36.1793468 L7.92647059,36.1793468 Z" id="Shape" fill="#4A4A4A"></path>
                <path d="M17.6623796,34.3694381 C17.9075625,33.8019182 18.2419473,33.3070952 18.6660212,32.8859382 C19.0896077,32.4647813 19.5867978,32.1320721 20.1578353,31.8880531 C20.7288728,31.6440341 21.3357373,31.5223881 21.9776975,31.5223881 C22.6206325,31.5223881 23.2267658,31.6437918 23.7978033,31.8880531 C24.3688408,32.1320721 24.8665184,32.4647813 25.2903486,32.8859382 C25.7139351,33.3070952 26.0483198,33.8019182 26.2939902,34.3694381 C26.5391732,34.9374427 26.6617647,35.5403417 26.6617647,36.1791045 C26.6617647,36.8178673 26.5391732,37.4210086 26.2939902,37.9885285 C26.0483198,38.556533 25.7139351,39.0508715 25.2903486,39.4720284 C24.8667621,39.89367 24.3690845,40.2258945 23.7978033,40.4699135 C23.2270095,40.7141749 22.6206325,40.8358209 21.9776975,40.8358209 C21.3357373,40.8358209 20.7288728,40.7141749 20.1578353,40.4699135 C19.5870416,40.2258945 19.0898514,39.89367 18.6660212,39.4720284 C18.2419473,39.0508715 17.9075625,38.556533 17.6623796,37.9885285 C17.4169529,37.4210086 17.2941176,36.8178673 17.2941176,36.1791045 C17.2941176,35.5403417 17.4167091,34.9374427 17.6623796,34.3694381 Z M20.1283144,36.9557432 C20.2338134,37.1985239 20.3771771,37.4101457 20.5589278,37.5903487 C20.7401562,37.7708114 20.9529821,37.9136236 21.1963609,38.0180063 C21.4400009,38.1226487 21.7003535,38.1748401 21.97768,38.1748401 C22.2550065,38.1748401 22.5153592,38.1229084 22.7595214,38.0180063 C23.0034225,37.9136236 23.2159873,37.7708114 23.3974768,37.5903487 C23.5792275,37.4101457 23.7223301,37.1982643 23.8275679,36.9557432 C23.9325446,36.7134818 23.9852941,36.4548619 23.9852941,36.1791045 C23.9852941,35.9033471 23.9325446,35.6442079 23.8275679,35.4022061 C23.7223301,35.1594254 23.5789664,34.948323 23.3974768,34.7678603 C23.2157261,34.5871379 23.0034225,34.4443257 22.7595214,34.3402026 C22.5153592,34.2358199 22.2550065,34.1833689 21.97768,34.1833689 C21.7003535,34.1833689 21.4400009,34.2358199 21.1963609,34.3402026 C20.952721,34.4443257 20.7401562,34.5871379 20.5589278,34.7678603 C20.3771771,34.948323 20.2335523,35.159685 20.1283144,35.4022061 C20.0233377,35.6442079 19.9705882,35.9036068 19.9705882,36.1791045 C19.9705882,36.4548619 20.0233377,36.7137414 20.1283144,36.9557432 Z" id="Shape" fill="#4A4A4A"></path>
            </g>
        </g>
    </g>
</svg>