<?xml version="1.0" encoding="UTF-8"?>
<svg width="47px" height="46px" viewBox="0 0 47 46" version="1.1" xmlns="http://www.w3.org/2000/svg" xmlns:xlink="http://www.w3.org/1999/xlink">
    <!-- Generator: Sketch 51.2 (57519) - http://www.bohemiancoding.com/sketch -->
    <title>twitter</title>
    <desc>Created with Sketch.</desc>
    <defs></defs>
    <g id="Symbols" stroke="none" stroke-width="1" fill="none" fill-rule="evenodd">
        <g id="footer" transform="translate(-396.000000, -59.000000)">
            <g id="twitter" transform="translate(396.000000, 59.000000)">
                <circle id="Combined-Shape" fill="#DB2323" cx="23.5" cy="22.7727273" r="22.7727273"></circle>
                <path d="M27.1719208,12.890209 C25.001081,13.6940052 23.6292826,15.7671752 23.7851123,18.0360228 L23.8373318,18.9115112 L22.9686643,18.8043946 C19.8081404,18.3936404 17.0463083,17.0002812 14.7014034,14.658898 L13.5550607,13.4974842 L13.259979,14.3552604 C12.6350026,16.2673338 13.0345234,18.2865238 14.3366957,19.6444586 C15.0312981,20.3951182 14.8746396,20.5022348 13.6769063,20.0552128 C13.259979,19.9126718 12.8952713,19.8055552 12.8604583,19.8586918 C12.7394417,19.984364 13.15554,21.6096686 13.4854347,22.2532116 C13.937175,23.1472557 14.8572331,24.0219006 15.8651526,24.5406148 L16.7164136,24.951369 L15.7093229,24.9690812 C14.7370453,24.9690812 14.7022323,24.9867934 14.8066713,25.3629667 C15.1539725,26.5243805 16.5257709,27.7574865 18.0542278,28.2939129 L19.1309444,28.6683993 L18.1934798,29.2402501 C16.804275,30.0634453 15.171379,30.5273361 13.5384831,30.561917 C12.7560193,30.5796292 12.1136364,30.6513214 12.1136364,30.7053015 C12.1136364,30.8832668 14.2330855,31.883584 15.4656319,32.2774694 C19.1649286,33.4388832 23.5596566,32.9378812 26.8594326,30.954959 C29.2043374,29.5430442 31.5484134,26.7377702 32.6433654,24.0210572 C33.2343577,22.5745614 33.8245211,19.9295406 33.8245211,18.6618536 C33.8245211,17.8395018 33.8767406,17.7323852 34.8490183,16.7497802 C35.422604,16.1779294 35.9605479,15.552942 36.064987,15.3741332 C36.239052,15.0342278 36.2208166,15.0342278 35.3355715,15.3378654 C33.8593341,15.8742918 33.6504561,15.8025996 34.3807004,14.9988034 C34.9186443,14.4269526 35.5618561,13.3903676 35.5618561,13.08673 C35.5618561,13.0335934 35.3015874,13.1221544 35.0056768,13.283251 C34.6931886,13.4620598 33.9985862,13.730273 33.4772199,13.8905262 L32.5397553,14.1950072 L31.6884943,13.6046008 C31.2193476,13.283251 30.560387,12.9256334 30.2122569,12.8185168 C29.326183,12.5688592 27.9709622,12.6042836 27.1719208,12.890209 Z" id="Path" fill="#FFFFFF"></path>
            </g>
        </g>
    </g>
</svg>